<svg width="166" height="68" viewBox="0 0 166 68" fill="none" xmlns="http://www.w3.org/2000/svg">
<path d="M44.0369 26.4968C42.7293 14.8693 31.5515 11.7729 25.3708 15.4843C20.7018 18.2647 19.1658 23.8111 16.5239 24.2826C19.7758 24.7979 23.5917 17.6693 29.1502 17.6717C32.1129 17.6498 34.1813 18.7435 35.9166 20.3331C39.6644 24.2243 38.6631 29.722 36.9618 34.8503C31.7848 50.3786 26.6662 47.4912 27.3735 46.5822C31.5782 41.1866 35.3722 31.9192 29.646 28.2856C27.32 26.8395 24.2795 27.6998 23.2563 29.7171C23.0837 30.0574 22.5903 30.0671 22.4105 29.7293C19.3116 23.8961 6.18217 30.2932 18.4221 46.417C18.5825 46.626 18.4998 46.9347 18.2519 47.027C12.8198 49.0443 6.60507 31.9483 6.82624 25.8989C7.46546 18.5078 14.1104 15.3725 19.4769 16.7116C14.21 12.8934 3.27774 15.7346 2.0625 26.7276C1.18996 36.9089 9.5338 59.2645 22.0143 51.6012C23.9441 50.4151 27.1694 55.1084 32.8275 52.0775C39.7495 47.8485 44.5108 34.7847 44.0344 26.4992L44.0369 26.4968ZM22.4591 30.8303C22.6414 31.1487 23.0959 31.1317 23.2854 30.8181C25.6892 26.8443 34.6625 30.3904 23.9806 42.5428C23.317 43.2962 22.148 43.3035 21.4893 42.5476C10.7831 30.2713 20.0796 26.6645 22.4591 30.8327V30.8303Z" fill="#1BA2BB"/>
<path d="M28.0856 45.6222C26.9822 44.9392 24.9212 43.6097 23.8882 42.623C23.215 43.2841 22.1188 43.2646 21.4893 42.5428C23.7983 44.8517 26.3916 46.9833 27.5534 47.1947C26.8777 46.9711 27.6506 46.2298 28.0881 45.6222H28.0856Z" fill="black" fill-opacity="0.25"/>
<path d="M18.4245 46.4121C18.8644 46.993 17.8144 47.1947 17.1849 47.2822C18.1231 48.6044 20.0578 50.7019 21.2779 52.0192C21.9633 51.6619 22.8139 50.9085 23.9538 51.5866C22.2914 50.7675 19.6616 47.9117 18.4269 46.4121H18.4245Z" fill="black" fill-opacity="0.25"/>
<path d="M23.9515 51.5866C23.9977 51.6133 24.0463 51.6376 24.0924 51.6644C24.0487 51.6376 24.0025 51.6133 23.9515 51.5866Z" fill="#AB537F"/>
<path d="M50.395 21.265H53.545C54.535 21.265 55.4025 21.465 56.1475 21.865C56.8925 22.26 57.4725 22.8225 57.8875 23.5525C58.3025 24.2825 58.51 25.145 58.51 26.14C58.51 27.125 58.3025 27.9825 57.8875 28.7125C57.4725 29.4375 56.8925 30 56.1475 30.4C55.4025 30.8 54.535 31 53.545 31H50.395V21.265ZM52.165 22.87V29.41H53.545C54.175 29.41 54.7175 29.2675 55.1725 28.9825C55.6325 28.6975 55.985 28.31 56.23 27.82C56.48 27.325 56.605 26.765 56.605 26.14C56.605 25.505 56.48 24.9425 56.23 24.4525C55.985 23.9625 55.6325 23.5775 55.1725 23.2975C54.7175 23.0125 54.175 22.87 53.545 22.87H52.165ZM60.2279 31V21.265H66.4829V22.795H61.9979V25.36H66.2129V26.89H61.9979V29.455H66.4829V31H60.2279ZM68.5666 21.265H70.5016L74.9266 28.21H74.7916V21.265H76.5616V31H74.7616L70.0516 23.635H70.3366V31H68.5666V21.265ZM77.5935 22.795V21.265H85.3935V22.795H81.981L82.3785 22.39V31H80.6085V22.39L81.006 22.795H77.5935ZM84.6784 31L87.9934 21.265H90.2134L93.3934 31H91.5334L90.8584 28.9H87.2434L86.5534 31H84.6784ZM87.6934 27.565H90.4384L89.0734 23.38L87.6934 27.565ZM96.4531 21.265V29.455H100.458V31H94.6831V21.265H96.4531ZM108.529 31.21C107.674 31.21 106.929 31.0075 106.294 30.6025C105.664 30.1925 105.174 29.6075 104.824 28.8475C104.474 28.0875 104.299 27.175 104.299 26.11C104.299 25.01 104.479 24.0875 104.839 23.3425C105.204 22.5925 105.704 22.0275 106.339 21.6475C106.979 21.2625 107.709 21.07 108.529 21.07C109.664 21.07 110.549 21.345 111.184 21.895C111.824 22.445 112.234 23.16 112.414 24.04L110.524 24.385C110.369 23.875 110.122 23.4625 109.782 23.1475C109.442 22.8325 109.024 22.675 108.529 22.675C108.094 22.675 107.702 22.8025 107.352 23.0575C107.002 23.3075 106.722 23.6875 106.512 24.1975C106.307 24.7075 106.204 25.345 106.204 26.11C106.204 26.83 106.294 27.45 106.474 27.97C106.659 28.49 106.924 28.89 107.269 29.17C107.614 29.45 108.034 29.59 108.529 29.59C109.164 29.59 109.654 29.4225 109.999 29.0875C110.349 28.7475 110.524 28.315 110.524 27.79H112.414C112.414 28.515 112.257 29.1325 111.942 29.6425C111.632 30.1475 111.187 30.535 110.607 30.805C110.027 31.075 109.334 31.21 108.529 31.21ZM112.981 31L116.296 21.265H118.516L121.696 31H119.836L119.161 28.9H115.546L114.856 31H112.981ZM115.996 27.565H118.741L117.376 23.38L115.996 27.565ZM122.986 31V21.265H126.586C127.751 21.265 128.643 21.5375 129.263 22.0825C129.888 22.6275 130.201 23.35 130.201 24.25C130.201 25.135 129.888 25.85 129.263 26.395C128.643 26.935 127.751 27.205 126.586 27.205H124.756V31H122.986ZM128.251 31L125.671 26.44H127.561L130.561 31H128.251ZM124.756 26.02H126.406C127.056 26.02 127.548 25.8725 127.883 25.5775C128.218 25.2775 128.386 24.89 128.386 24.415C128.386 23.93 128.233 23.54 127.928 23.245C127.623 22.945 127.176 22.795 126.586 22.795H124.756V26.02ZM132.174 31V21.265H138.429V22.795H133.944V25.36H138.159V26.89H133.944V29.455H138.429V31H132.174Z" fill="#222222"/>
<path d="M53.935 47.21C53.08 47.21 52.335 47.0075 51.7 46.6025C51.07 46.1925 50.58 45.6075 50.23 44.8475C49.88 44.0875 49.705 43.175 49.705 42.11C49.705 41.01 49.885 40.0875 50.245 39.3425C50.61 38.5925 51.11 38.0275 51.745 37.6475C52.385 37.2625 53.115 37.07 53.935 37.07C55.07 37.07 55.955 37.345 56.59 37.895C57.23 38.445 57.64 39.16 57.82 40.04L55.93 40.385C55.775 39.875 55.5275 39.4625 55.1875 39.1475C54.8475 38.8325 54.43 38.675 53.935 38.675C53.5 38.675 53.1075 38.8025 52.7575 39.0575C52.4075 39.3075 52.1275 39.6875 51.9175 40.1975C51.7125 40.7075 51.61 41.345 51.61 42.11C51.61 42.83 51.7 43.45 51.88 43.97C52.065 44.49 52.33 44.89 52.675 45.17C53.02 45.45 53.44 45.59 53.935 45.59C54.57 45.59 55.06 45.4225 55.405 45.0875C55.755 44.7475 55.93 44.315 55.93 43.79H57.82C57.82 44.515 57.6625 45.1325 57.3475 45.6425C57.0375 46.1475 56.5925 46.535 56.0125 46.805C55.4325 47.075 54.74 47.21 53.935 47.21ZM58.3868 47L61.7018 37.265H63.9218L67.1018 47H65.2418L64.5668 44.9H60.9518L60.2618 47H58.3868ZM61.4018 43.565H64.1468L62.7818 39.38L61.4018 43.565ZM68.3615 37.265H70.2965L74.7215 44.21H74.5865V37.265H76.3565V47H74.5565L69.8465 39.635H70.1315V47H68.3615V37.265ZM80.4634 37.265V45.455H84.4684V47H78.6934V37.265H80.4634ZM85.6405 47V37.265H91.8955V38.795H87.4105V41.36H91.6255V42.89H87.4105V45.455H91.8955V47H85.6405ZM92.7193 37.265H94.8193L97.1443 41.45H96.7993L99.2143 37.265H101.299L97.8343 42.98V47H96.0643V42.98L92.7193 37.265ZM105.707 37.265H107.477V41.33H111.722V37.265H113.492V47H111.722V42.875H107.477V47H105.707V37.265ZM115.818 47V37.265H122.073V38.795H117.588V41.36H121.803V42.89H117.588V45.455H122.073V47H115.818ZM124.187 47V37.265H125.957V47H124.187ZM131.862 47.21C131.067 47.21 130.35 47 129.71 46.58C129.07 46.16 128.56 45.575 128.18 44.825C127.805 44.07 127.617 43.19 127.617 42.185C127.617 41.39 127.732 40.6775 127.962 40.0475C128.197 39.4175 128.522 38.88 128.937 38.435C129.352 37.99 129.84 37.6525 130.4 37.4225C130.96 37.1875 131.567 37.07 132.222 37.07C133.132 37.07 133.895 37.2675 134.51 37.6625C135.13 38.0575 135.612 38.68 135.957 39.53L134.142 39.95C133.887 39.535 133.592 39.22 133.257 39.005C132.927 38.785 132.552 38.675 132.132 38.675C131.652 38.675 131.215 38.8175 130.82 39.1025C130.425 39.3825 130.11 39.785 129.875 40.31C129.64 40.835 129.522 41.46 129.522 42.185C129.522 42.865 129.625 43.46 129.83 43.97C130.04 44.48 130.332 44.8775 130.707 45.1625C131.082 45.4475 131.517 45.59 132.012 45.59C132.432 45.59 132.807 45.4975 133.137 45.3125C133.472 45.1225 133.735 44.8525 133.925 44.5025C134.12 44.1525 134.217 43.73 134.217 43.235H134.607C134.607 44.045 134.51 44.7475 134.315 45.3425C134.125 45.9375 133.827 46.3975 133.422 46.7225C133.017 47.0475 132.497 47.21 131.862 47.21ZM134.472 47L134.217 44.855V43.175L132.027 43.13V42.005H135.912V47H134.472ZM138.008 37.265H139.778V41.33H144.023V37.265H145.793V47H144.023V42.875H139.778V47H138.008V37.265ZM146.83 38.795V37.265H154.63V38.795H151.217L151.615 38.39V47H149.845V38.39L150.242 38.795H146.83ZM159.043 47.21C158.368 47.21 157.746 47.0925 157.176 46.8575C156.611 46.6225 156.151 46.265 155.796 45.785C155.446 45.305 155.258 44.695 155.233 43.955H156.973C156.973 44.33 157.066 44.6375 157.251 44.8775C157.436 45.1175 157.683 45.2975 157.993 45.4175C158.308 45.5325 158.653 45.59 159.028 45.59C159.388 45.59 159.708 45.5425 159.988 45.4475C160.273 45.3525 160.496 45.2175 160.656 45.0425C160.821 44.8625 160.903 44.65 160.903 44.405C160.903 44.08 160.803 43.825 160.603 43.64C160.408 43.455 160.093 43.285 159.658 43.13L157.738 42.365C156.988 42.07 156.413 41.7275 156.013 41.3375C155.613 40.9475 155.413 40.41 155.413 39.725C155.413 38.935 155.726 38.295 156.351 37.805C156.976 37.315 157.848 37.07 158.968 37.07C160.058 37.07 160.901 37.325 161.496 37.835C162.091 38.34 162.428 39.045 162.508 39.95H160.768C160.703 39.565 160.528 39.2575 160.243 39.0275C159.958 38.7925 159.533 38.675 158.968 38.675C158.468 38.675 158.073 38.78 157.783 38.99C157.493 39.195 157.348 39.455 157.348 39.77C157.348 40.04 157.438 40.255 157.618 40.415C157.803 40.57 158.088 40.72 158.473 40.865L160.603 41.69C161.323 41.97 161.876 42.3225 162.261 42.7475C162.646 43.1725 162.838 43.705 162.838 44.345C162.838 44.93 162.691 45.4375 162.396 45.8675C162.101 46.2925 161.671 46.6225 161.106 46.8575C160.541 47.0925 159.853 47.21 159.043 47.21Z" fill="#222222"/>
</svg>
